<svg width="456" height="562" viewBox="0 0 456 562" fill="none" xmlns="http://www.w3.org/2000/svg">
<path fill-rule="evenodd" clip-rule="evenodd" d="M210.826 3.77283e-07H409.876C435.349 3.77283e-07 456 21.9802 456 49.0942V511.937C456.001 524.959 451.142 537.448 442.492 546.656C433.842 555.864 422.109 561.038 409.876 561.038H210.826C198.591 561.039 186.857 555.867 178.206 546.658C169.554 537.45 164.695 524.96 164.696 511.937V49.0942C164.696 36.0726 169.557 23.5843 178.208 14.3772C186.859 5.17009 198.592 -0.00161281 210.826 3.77283e-07V3.77283e-07Z" fill="#56557E"/>
<path fill-rule="evenodd" clip-rule="evenodd" d="M411.218 544.294H209.483C189.661 544.294 173.45 526.802 173.45 505.418V48.5712C173.45 27.1807 189.661 9.68874 209.483 9.68874H218.357C220.12 9.70089 221.559 11.1946 221.614 13.0703C221.751 16.6223 220.894 29.7595 224.328 29.802C230.688 29.8872 396.642 29.5831 397.133 29.1938C399.156 27.6855 398.133 15.8133 398.276 12.9852C398.352 11.1305 399.783 9.66629 401.527 9.65833H411.241C431.058 9.65833 447.274 27.1564 447.274 48.5408V505.387C447.251 526.802 431.035 544.294 411.218 544.294Z" fill="#E5E8F5"/>
<path fill-rule="evenodd" clip-rule="evenodd" d="M173.45 141.523V48.0421C173.507 26.8851 189.606 9.74891 209.483 9.68877H218.357C220.109 9.69066 221.547 11.1646 221.614 13.0278C221.751 16.5311 220.163 29.4493 231.939 29.4128C238.293 29.4128 388.659 28.756 389.254 28.756C399.099 28.756 398.133 15.7526 398.259 12.9427C398.35 11.1006 399.783 9.65864 401.516 9.66445H411.23C431.106 9.7279 447.203 26.8622 447.263 48.0178V141.499L173.45 141.523Z" fill="#8F97B9"/>
<path fill-rule="evenodd" clip-rule="evenodd" d="M333.358 411.067H418.858C426.218 411.07 432.183 417.422 432.183 425.256V516.256C432.183 524.089 426.217 530.439 418.858 530.439H333.358C325.999 530.439 320.033 524.089 320.033 516.256V425.256C320.033 417.422 325.998 411.07 333.358 411.067Z" fill="white"/>
<path fill-rule="evenodd" clip-rule="evenodd" d="M407.613 474.807C403.487 471.03 368.346 455.417 368.346 455.417C363.592 455.587 363.603 464.905 359.569 464.583C352.381 464.011 349.324 458.914 347.347 459.717C340.97 462.241 343.347 485.341 343.347 485.341L408.716 485.085C408.716 485.085 410.053 477.039 407.613 474.807Z" fill="#8F97B9"/>
<path fill-rule="evenodd" clip-rule="evenodd" d="M343.278 481.12C343.198 484.659 343.358 485.328 343.358 485.328L408.727 485.067C408.727 485.067 409.578 483.498 409.087 480.347C408.887 479.076 343.278 481.12 343.278 481.12Z" fill="#BBC0D6"/>
<path fill-rule="evenodd" clip-rule="evenodd" d="M200.849 410.544H286.349C293.708 410.544 299.674 416.894 299.674 424.727V515.733C299.674 523.566 293.708 529.916 286.349 529.916H200.849C193.49 529.916 187.524 523.566 187.524 515.733V424.727C187.524 416.894 193.49 410.544 200.849 410.544Z" fill="white"/>
<path fill-rule="evenodd" clip-rule="evenodd" d="M261.196 466.012C261.196 466.012 266.733 461.268 254.236 455.374C251.613 454.158 221.231 476.4 209.666 478.152C206.883 478.577 206.449 482.902 207.866 483.954C213.912 488.436 280.018 481.028 280.018 481.028C281.326 478.638 277.846 461.724 276.018 463.287C272.544 466.255 261.196 466.012 261.196 466.012Z" fill="#BBC0D6"/>
<path fill-rule="evenodd" clip-rule="evenodd" d="M261.201 466.012C261.201 466.012 266.732 461.268 254.235 455.374C251.613 454.158 221.231 476.4 209.666 478.152C206.883 478.577 280.583 477.543 279.709 473.353C278.772 468.828 276.966 462.472 276.012 463.281C272.543 466.255 261.201 466.012 261.201 466.012Z" fill="#8F97B9"/>
<path fill-rule="evenodd" clip-rule="evenodd" d="M333.358 268.394H418.858C426.217 268.394 432.183 274.744 432.183 282.578V373.583C432.183 381.416 426.217 387.766 418.858 387.766H333.358C329.824 387.766 326.435 386.272 323.936 383.612C321.437 380.952 320.033 377.345 320.033 373.583V282.578C320.033 274.744 325.999 268.394 333.358 268.394Z" fill="white"/>
<path fill-rule="evenodd" clip-rule="evenodd" d="M410.43 342.224L341.764 342.157C341.764 342.157 341.192 337.669 343.227 334.129L408.761 333.125L410.43 342.224Z" fill="#8F97B9"/>
<path fill-rule="evenodd" clip-rule="evenodd" d="M343.221 334.147C347.484 326.849 361.095 328.369 370.077 319.149C377.185 311.85 384.499 313.675 384.499 313.675C384.499 313.675 387.928 323.814 396.825 322.677C401.127 322.129 400.253 318.583 402.693 317.099C403.72 316.513 404.979 316.658 405.864 317.464L409.693 338.362L341.695 339.329C341.987 335.674 343.221 334.147 343.221 334.147Z" fill="#8F97B9"/>
<path fill-rule="evenodd" clip-rule="evenodd" d="M200.849 267.853H286.349C293.708 267.853 299.674 274.203 299.674 282.036V373.072C299.674 380.907 293.709 387.258 286.349 387.262H200.849C193.489 387.258 187.524 380.907 187.524 373.072V282.055C187.519 278.29 188.921 274.678 191.421 272.014C193.92 269.35 197.312 267.853 200.849 267.853V267.853Z" fill="white"/>
<path fill-rule="evenodd" clip-rule="evenodd" d="M266.961 347.528C266.389 343.003 255.887 345.734 249.756 342.054C236.648 334.238 222.785 322.068 222.785 322.068H220.277V351.554H228.671V336.805C228.671 336.805 241.813 351.067 248.133 352.582C253.864 353.981 267.704 353.141 266.961 347.528Z" fill="#8F97B9"/>
<path fill-rule="evenodd" clip-rule="evenodd" d="M231.985 302.484L247.922 309.783L247.613 335.163C247.613 335.163 254.373 341.963 259.504 342.34C265.253 342.759 267.955 346.78 266.961 347.96C263.956 351.536 252.842 351.359 248.602 349.723C239.545 346.214 226.22 331.277 220.74 323.26C217.546 318.602 231.985 302.484 231.985 302.484Z" fill="#8F97B9"/>
<path fill-rule="evenodd" clip-rule="evenodd" d="M289.028 166.891H330.684C338.043 166.891 344.009 173.241 344.009 181.074V225.412C344.009 233.247 338.044 239.599 330.684 239.602H289.028C285.491 239.602 282.099 238.105 279.6 235.441C277.1 232.777 275.699 229.165 275.703 225.4V181.062C275.703 173.228 281.668 166.876 289.028 166.873V166.891Z" fill="white"/>
<path fill-rule="evenodd" clip-rule="evenodd" d="M320.33 225.133L300.754 225.218L301.748 199.187L295.462 202.398L289.954 192.326L301.382 181.835H305.496C305.496 181.835 305.902 186.092 310.999 185.958C314.159 185.873 316.142 181.81 316.142 181.81H320.096L330.953 189.966L327.484 200.002L320.056 198.755L320.33 225.133Z" fill="#BBC0D6"/>
<path fill-rule="evenodd" clip-rule="evenodd" d="M377.203 166.891H418.858C426.217 166.891 432.183 173.241 432.183 181.074V225.412C432.183 233.247 426.218 239.599 418.858 239.602H377.203C369.842 239.602 363.875 233.253 363.872 225.419V181.081C363.872 173.244 369.84 166.891 377.203 166.891V166.891Z" fill="white"/>
<path fill-rule="evenodd" clip-rule="evenodd" d="M411.818 226.13H407.19L398.167 192.332L390.853 226.13H384.511L387.436 180.88H409.15L411.818 226.13Z" fill="#BBC0D6"/>
<path fill-rule="evenodd" clip-rule="evenodd" d="M200.849 166.891H242.505C249.865 166.891 255.832 173.24 255.836 181.074V225.413C255.832 233.248 249.866 239.599 242.505 239.602H200.849C193.49 239.602 187.524 233.252 187.524 225.419V181.081C187.524 173.246 193.489 166.895 200.849 166.891Z" fill="white"/>
<path fill-rule="evenodd" clip-rule="evenodd" d="M201.289 194.333H216.803C220.62 197.934 224.82 201.047 229.317 203.608C234.459 206.43 240.408 204.454 242.63 210.116C242.882 210.724 242.63 212.89 242.63 212.89H200.409V210.116L201.289 194.333Z" fill="#BBC0D6"/>
<path opacity="0.2" fill-rule="evenodd" clip-rule="evenodd" d="M194.187 96.5038H425.521C429.2 96.5038 432.183 99.6788 432.183 103.595V120.467C432.183 124.384 429.2 127.559 425.521 127.559H194.187C190.507 127.559 187.524 124.384 187.524 120.467V103.595C187.524 99.6788 190.507 96.5038 194.187 96.5038V96.5038Z" fill="#E5E8F5"/>
<path fill-rule="evenodd" clip-rule="evenodd" d="M194.495 44.3928H299.291C302.971 44.3928 305.954 47.5679 305.954 51.4845C305.954 55.4011 302.971 58.5761 299.291 58.5761H194.495C190.815 58.5761 187.833 55.4011 187.833 51.4845C187.833 47.5679 190.815 44.3928 194.495 44.3928Z" fill="#E5E8F5"/>
<path fill-rule="evenodd" clip-rule="evenodd" d="M194.495 70.4482H370.648C374.328 70.4482 377.311 73.6233 377.311 77.5399C377.311 81.4565 374.328 84.6316 370.648 84.6316H194.495C190.815 84.6316 187.833 81.4565 187.833 77.5399C187.833 73.6233 190.815 70.4482 194.495 70.4482Z" fill="#E5E8F5"/>
<path fill-rule="evenodd" clip-rule="evenodd" d="M19.2907 557.23C19.9592 544.099 7.64543 523.128 7.64543 523.128C5.74836 522.55 0 528.937 0 528.937L14.4909 560.052L19.2907 557.23Z" fill="#5D5D7D"/>
<path fill-rule="evenodd" clip-rule="evenodd" d="M8.22259 539.525C8.22259 539.525 2.84565 526.011 5.48555 524.503C9.26827 522.332 14.7823 513.555 14.7823 513.555L21.5649 514.62C20.0564 524.247 15.2509 536.478 15.0109 539.708C14.8966 541.295 8.22259 539.525 8.22259 539.525Z" fill="#FFECB3"/>
<path fill-rule="evenodd" clip-rule="evenodd" d="M102.647 553.101C96.6247 548.393 71.3742 551.276 71.3742 551.276C70.1342 553.052 70.0942 561.853 70.0942 561.853L102.87 561.95C102.87 561.95 104.79 554.767 102.647 553.101Z" fill="#5D5D7D"/>
<path fill-rule="evenodd" clip-rule="evenodd" d="M84.2827 557.504C84.2827 557.504 71.5746 557.571 71.5118 554.122C71.4203 549.19 71.9403 541.569 71.9403 541.569C71.9403 541.569 80.9285 540.316 81.0828 543.199C81.54 552.219 84.8998 548.746 87.294 550.351C88.4597 551.13 84.2827 557.504 84.2827 557.504Z" fill="#FFECB3"/>
<path fill-rule="evenodd" clip-rule="evenodd" d="M16.5421 207.118C18.2906 227.188 37.1128 218.619 53.6836 228.569C69.0087 237.759 83.1567 213.145 83.1567 192.941C83.1567 172.736 79.2712 151.619 62.0661 151.619C44.861 151.619 15.765 198.189 16.5421 207.118Z" fill="#694A52"/>
<path fill-rule="evenodd" clip-rule="evenodd" d="M17.8682 530.481L10.7827 518.719L40.3587 444.615C40.3587 444.615 21.668 411.772 19.3195 388.162C17.2453 367.325 22.4108 354.954 22.4108 354.954L60.9923 353.269C60.9923 353.269 59.278 360.945 58.9923 389.883C58.8952 400.003 65.6321 435.054 61.8494 453.708C60.2837 461.146 25.3765 528.56 17.8682 530.481Z" fill="#5D5D7D"/>
<path fill-rule="evenodd" clip-rule="evenodd" d="M82.3914 546.362H70.6547C70.6547 546.362 65.5977 422.653 61.2093 406.536C53.5353 378.345 57.5695 351.87 57.5695 351.87H84.7684C84.7684 351.87 95.3509 418.529 95.088 447.462C94.8938 468.475 82.3914 546.362 82.3914 546.362Z" fill="#5D5D7D"/>
<path fill-rule="evenodd" clip-rule="evenodd" d="M40.9067 247.703L77.0711 249.333L66.86 205.39L52.4949 201.541L40.9067 247.703Z" fill="#FFDFAE"/>
<path fill-rule="evenodd" clip-rule="evenodd" d="M85.5567 355.751H43.1411V235.472C64.3517 263.06 74.4257 235.472 74.4257 235.472L85.5567 355.751Z" fill="#E0F5FF"/>
<path fill-rule="evenodd" clip-rule="evenodd" d="M48.7412 353.002C62.5064 336.878 49.5755 314.806 49.4326 291.974C49.3983 286.063 47.507 276.83 47.0899 270.931C46.6899 265.238 45.9013 253.366 44.6957 247.849C43.5243 242.521 46.6042 227.73 46.7642 224.342C43.3757 225.297 42.9814 225.899 38.3645 227.705C28.1363 231.714 17.2224 233.459 16.531 238.3C14.2454 254.199 26.7306 317.762 26.7306 317.762L16.2339 355.72C16.2339 355.72 41.9986 360.951 48.7412 353.002Z" fill="#ADADEA"/>
<path fill-rule="evenodd" clip-rule="evenodd" d="M71.4312 225.072C80.9337 228.77 90.8818 238.094 95.6531 244.857C95.6857 244.903 95.8183 245.062 96.0362 245.322C99.029 248.897 118.113 271.696 115.252 287.218C113.612 296.171 95.4988 317.738 89.6133 324.556C90.0133 342.224 90.5504 355.769 90.5504 355.769C90.5504 355.769 84.7107 357.332 81.2079 356.602C71.6698 354.595 73.748 335.992 75.6407 319.048C76.3696 312.524 77.0709 306.245 77.0709 301.256C77.0676 295.392 76.2438 280.374 75.5116 267.025C75.0049 257.789 74.5422 249.353 74.4253 245.301C74.1682 236.36 71.4312 225.072 71.4312 225.072ZM89.6875 264.113C89.1161 276.459 89.1047 292.747 89.3104 308.159L100.979 284.439L89.6875 264.113Z" fill="#9499EA"/>
<path fill-rule="evenodd" clip-rule="evenodd" d="M80.963 268.042L71.5976 266.217C70.6887 266.111 69.8615 266.782 69.7177 267.743L64.8321 289.335C64.5179 290.728 65.3578 292.108 66.5006 292.059L75.5117 291.701C76.2657 291.623 76.8878 291.04 77.0545 290.253L82.2943 270.845C82.6372 269.586 81.9972 268.242 80.963 268.042Z" fill="#30312C"/>
<path fill-rule="evenodd" clip-rule="evenodd" d="M75.1399 290.813C73.86 294.352 63.7804 299.151 63.7804 299.151L61.1919 291.281C61.1919 291.281 66.0374 281.075 69.123 282.304C71.083 283.058 75.9571 288.593 75.1399 290.813Z" fill="#FFECB3"/>
<path fill-rule="evenodd" clip-rule="evenodd" d="M65.5975 298.324C65.5975 298.324 24.1477 326.034 17.7765 318.918C4.89125 304.522 16.5194 238.319 16.5194 238.319C26.8047 235.886 28.1304 263.766 28.1304 263.766C28.1304 263.766 28.2218 290.15 27.0561 298.531L61.072 290.91L65.5975 298.324Z" fill="#9499EA"/>
<path fill-rule="evenodd" clip-rule="evenodd" d="M71.1862 213.51C71.1862 213.51 59.8838 203.779 52.3869 201.869C52.3869 201.869 50.7927 208.425 48.9585 215.627C51.2898 221.07 62.2609 226.641 66.9635 227.292C70.752 227.821 71.1862 213.51 71.1862 213.51Z" fill="#F4CA92"/>
<path fill-rule="evenodd" clip-rule="evenodd" d="M48.7407 199.016C48.7407 184.778 55.0262 176.683 60.0432 176.683C60.0432 176.683 58.2432 185.989 61.426 187.473C67.1972 190.161 80.071 187.929 80.071 194.163C80.071 208.407 70.4828 222.207 68.4143 222.207C63.3687 222.201 48.7407 213.261 48.7407 199.016Z" fill="#FFDFAE"/>
<path fill-rule="evenodd" clip-rule="evenodd" d="M83.7111 329.969L86.4653 327.208L83.0368 317.768L80.4141 321.752L83.7111 329.969Z" fill="#FFECB3"/>
<path fill-rule="evenodd" clip-rule="evenodd" d="M85.9624 337.018C83.6768 337.018 78.5684 333.247 78.5684 328.594C78.5684 323.942 77.4256 320.171 79.7112 320.171C81.9969 320.171 88.2309 337.018 85.9624 337.018Z" fill="#9499EA"/>
</svg>
